# xmcd
#
# Track frame offsets:
#	150
#	8374
#	26661
#	53237
#	73374
#	89625
#	103764
#	122481
#	146711
#	163531
#	174994
#	194729
#	212580
#	232313
#
# Disc length: 3288 seconds
#
# Revision: 1
# Processed by: cddbd v1.5.2PL0 Copyright (c) Steve Scherf et al.
# Submitted via: audiograbber 1.83.01
#
DISCID=cb0cd60e
DTITLE=Motor City Josh - Blue Collar Blues Man
DYEAR=1900
DGENRE=Blues
TTITLE0=Tim's Blues
TTITLE1=I'm Goin' Away
TTITLE2=I Was Born to Play the Blues
TTITLE3=Detroit Michigan
TTITLE4=Detroit Lady
TTITLE5=Funky Man of the Blues
TTITLE6=Sit Back and Let the World Go By
TTITLE7=Born in the Dog House
TTITLE8=I'm Down For That
TTITLE9=I Can't Win For Losin'
TTITLE10=I Paid the Doctor
TTITLE11=Blue Collar Blues
TTITLE12=I Was Born to Play the Blues (Radio Edit)
TTITLE13=Blue Collar Blues Man (Radio Edit)
EXTD=
EXTT0=
EXTT1=
EXTT2=
EXTT3=
EXTT4=
EXTT5=
EXTT6=
EXTT7=
EXTT8=
EXTT9=
EXTT10=
EXTT11=
EXTT12=
EXTT13=
PLAYORDER=
